<svg width="36" height="36" viewBox="0 0 36 36" fill="none" xmlns="http://www.w3.org/2000/svg">
<g clip-path="url(#clip0_67_64)">
<path d="M32 0C34.2091 0 36 1.79086 36 4V32C36 34.2091 34.2091 36 32 36H4C1.79086 36 0 34.2091 0 32V4C0 1.79086 1.79086 0 4 0H32ZM18.8978 34.8896C18.8927 34.8869 18.8866 34.8875 18.8809 34.8886C18.8757 34.8895 18.8706 34.8912 18.8658 34.8935L18.7761 34.9378C18.7697 34.9409 18.763 34.9432 18.756 34.9446L18.7521 34.9454C18.7419 34.9474 18.7313 34.947 18.7212 34.9441C18.7174 34.943 18.7137 34.9416 18.7102 34.9399L18.609 34.89C18.5973 34.8853 18.5865 34.887 18.5787 34.8923C18.5745 34.8952 18.572 34.8999 18.5701 34.9047C18.5681 34.9099 18.5669 34.9153 18.5667 34.9209L18.542 35.5419C18.5417 35.5503 18.5425 35.5586 18.5446 35.5667L18.5455 35.5706C18.5478 35.5798 18.552 35.5884 18.5577 35.5959C18.5619 35.6013 18.5668 35.606 18.5724 35.61L18.7129 35.7099C18.7176 35.7133 18.7229 35.7158 18.7285 35.7173L18.7303 35.7177C18.7382 35.7199 18.7467 35.7196 18.7545 35.717C18.7585 35.7157 18.7622 35.7138 18.7656 35.7113L18.9061 35.6114C18.913 35.6065 18.9191 35.6005 18.9242 35.5938L18.925 35.5927C18.9313 35.5843 18.9357 35.5747 18.9381 35.5646C18.9397 35.5579 18.9404 35.551 18.9401 35.5442L18.9155 34.9275C18.9152 34.9185 18.9148 34.9092 18.9102 34.9015C18.907 34.8962 18.9027 34.8921 18.8978 34.8896ZM19.2968 34.721C19.2907 34.7177 19.2835 34.718 19.2767 34.7191C19.2706 34.72 19.2647 34.7219 19.2592 34.7247L18.9972 34.8564C18.9924 34.8588 18.9881 34.8619 18.9843 34.8657L18.9826 34.8674C18.9776 34.8724 18.974 34.8786 18.9722 34.8854C18.9711 34.8894 18.9706 34.8936 18.9708 34.8978L18.9971 35.528C18.9974 35.5336 18.9986 35.5391 19.0008 35.5443L19.0012 35.5454C19.0037 35.5514 19.0075 35.5567 19.0124 35.561C19.0155 35.5636 19.0189 35.5659 19.0225 35.5676L19.3185 35.7045C19.3319 35.709 19.3445 35.7068 19.3538 35.7004C19.36 35.6961 19.3631 35.6888 19.3651 35.6815C19.367 35.6749 19.3678 35.668 19.3674 35.6611L19.3179 34.767C19.3173 34.756 19.3165 34.7447 19.3109 34.7352C19.3073 34.729 19.3025 34.7242 19.2968 34.721ZM18.2145 34.7205C18.2077 34.7174 18.2001 34.7166 18.1927 34.7182C18.1889 34.7191 18.1853 34.7206 18.182 34.7226C18.176 34.7263 18.1726 34.7328 18.1698 34.7392C18.1666 34.7467 18.1648 34.7546 18.1643 34.7628L18.114 35.6715C18.114 35.684 18.119 35.6936 18.1271 35.7003C18.1344 35.7063 18.1444 35.7068 18.1538 35.7056C18.1592 35.7049 18.1645 35.7033 18.1695 35.701L18.4582 35.5674C18.4617 35.5658 18.465 35.5638 18.468 35.5614L18.4697 35.5601C18.4755 35.5554 18.4798 35.5493 18.4824 35.5424C18.4838 35.5385 18.4846 35.5344 18.4847 35.5302L18.5098 34.8978C18.5099 34.8936 18.5095 34.8894 18.5085 34.8854C18.5065 34.8776 18.5025 34.8705 18.4969 34.8649L18.496 34.864C18.4924 34.8604 18.4881 34.8573 18.4835 34.855L18.2145 34.7205Z" fill="#5B7282" fill-opacity="0.05"/>
<path d="M18 11.5076C17.1474 11.5076 16.3031 11.6755 15.5154 12.0018C14.7277 12.3281 14.012 12.8063 13.4092 13.4092C12.8063 14.012 12.328 14.7278 12.0018 15.5155C11.6755 16.3032 11.5076 17.1474 11.5076 18C11.5076 18.8526 11.6755 19.6968 12.0018 20.4845C12.328 21.2722 12.8063 21.9879 13.4092 22.5908C14.012 23.1937 14.7277 23.6719 15.5154 23.9982C16.3031 24.3245 17.1474 24.4924 18 24.4924C19.7219 24.4924 21.3732 23.8084 22.5908 22.5908C23.8084 21.3733 24.4924 19.7219 24.4924 18C24.4924 16.2781 23.8084 14.6267 22.5908 13.4092C21.3732 12.1916 19.7219 11.5076 18 11.5076ZM13.5077 18C13.5077 16.8086 13.981 15.6659 14.8235 14.8235C15.6659 13.981 16.8085 13.5077 18 13.5077C19.1914 13.5077 20.334 13.981 21.1765 14.8235C22.019 15.6659 22.4923 16.8086 22.4923 18C22.4923 19.1914 22.019 20.3341 21.1765 21.1765C20.334 22.019 19.1914 22.4923 18 22.4923C16.8085 22.4923 15.6659 22.019 14.8235 21.1765C13.981 20.3341 13.5077 19.1914 13.5077 18Z" fill="#5B7282" fill-opacity="0.25"/>
<path d="M21.5922 4.68517C20.5382 1.10494 15.4618 1.10494 14.4078 4.68517L14.2198 5.32321C14.1462 5.57313 14.0175 5.80341 13.8434 5.99717C13.6692 6.19093 13.4539 6.34325 13.2132 6.44298C12.9725 6.54271 12.7125 6.58731 12.4524 6.57352C12.1922 6.55973 11.9384 6.48789 11.7096 6.36327L11.1256 6.04325C7.84537 4.25914 4.25914 7.84737 6.04525 11.1256L6.36327 11.7096C6.48789 11.9384 6.55973 12.1922 6.57352 12.4524C6.58731 12.7125 6.54271 12.9725 6.44298 13.2132C6.34325 13.4539 6.19093 13.6692 5.99717 13.8434C5.80341 14.0175 5.57313 14.1462 5.32321 14.2198L4.68517 14.4078C1.10494 15.4618 1.10494 20.5382 4.68517 21.5922L5.32321 21.7802C5.57313 21.8538 5.80341 21.9825 5.99717 22.1566C6.19093 22.3308 6.34325 22.5461 6.44298 22.7868C6.54271 23.0275 6.58731 23.2875 6.57352 23.5476C6.55973 23.8078 6.48789 24.0616 6.36327 24.2904L6.04325 24.8744C4.25914 28.1546 7.84537 31.7429 11.1256 29.9547L11.7096 29.6367C11.9384 29.5121 12.1922 29.4403 12.4524 29.4265C12.7125 29.4127 12.9725 29.4573 13.2132 29.557C13.4539 29.6567 13.6692 29.8091 13.8434 30.0028C14.0175 30.1966 14.1462 30.4269 14.2198 30.6768L14.4078 31.3148C15.4618 34.8951 20.5382 34.8951 21.5922 31.3148L21.7802 30.6768C21.8538 30.4269 21.9825 30.1966 22.1566 30.0028C22.3308 29.8091 22.5461 29.6567 22.7868 29.557C23.0275 29.4573 23.2875 29.4127 23.5476 29.4265C23.8078 29.4403 24.0616 29.5121 24.2904 29.6367L24.8744 29.9567C28.1546 31.7429 31.7429 28.1526 29.9547 24.8744L29.6367 24.2904C29.5121 24.0616 29.4403 23.8078 29.4265 23.5476C29.4127 23.2875 29.4573 23.0275 29.557 22.7868C29.6567 22.5461 29.8091 22.3308 30.0028 22.1566C30.1966 21.9825 30.4269 21.8538 30.6768 21.7802L31.3148 21.5922C34.8951 20.5382 34.8951 15.4618 31.3148 14.4078L30.6768 14.2198C30.4269 14.1462 30.1966 14.0175 30.0028 13.8434C29.8091 13.6692 29.6567 13.4539 29.557 13.2132C29.4573 12.9725 29.4127 12.7125 29.4265 12.4524C29.4403 12.1922 29.5121 11.9384 29.6367 11.7096L29.9567 11.1256C31.7429 7.84537 28.1526 4.25914 24.8744 6.04525L24.2904 6.36327C24.0616 6.48789 23.8078 6.55973 23.5476 6.57352C23.2875 6.58731 23.0275 6.54271 22.7868 6.44298C22.5461 6.34325 22.3308 6.19093 22.1566 5.99717C21.9825 5.80341 21.8538 5.57313 21.7802 5.32321L21.5922 4.68517ZM16.3259 5.2512C16.8179 3.5811 19.1821 3.5811 19.6741 5.2512L19.8621 5.88924C20.0202 6.42545 20.2962 6.91948 20.67 7.33513C21.0438 7.75078 21.5059 8.07751 22.0224 8.29135C22.5389 8.5052 23.0967 8.60075 23.6549 8.57099C24.2131 8.54123 24.7576 8.38693 25.2485 8.11938L25.8305 7.79936C27.3586 6.96931 29.0307 8.63941 28.1986 10.1695L27.8806 10.7535C27.6135 11.2444 27.4595 11.7889 27.4301 12.347C27.4007 12.905 27.4965 13.4627 27.7105 13.9789C27.9245 14.4952 28.2513 14.957 28.667 15.3306C29.0827 15.7042 29.5767 15.98 30.1128 16.1379L30.7488 16.3259C32.4189 16.8179 32.4189 19.1821 30.7488 19.6741L30.1108 19.8621C29.5746 20.0202 29.0805 20.2962 28.6649 20.67C28.2492 21.0438 27.9225 21.5059 27.7086 22.0224C27.4948 22.5389 27.3993 23.0967 27.429 23.6549C27.4588 24.2131 27.6131 24.7576 27.8806 25.2485L28.2006 25.8305C29.0307 27.3586 27.3606 29.0307 25.8305 28.1986L25.2485 27.8806C24.7575 27.6131 24.2129 27.4589 23.6545 27.4292C23.0962 27.3996 22.5383 27.4953 22.0218 27.7094C21.5053 27.9234 21.0432 28.2504 20.6695 28.6663C20.2958 29.0821 20.0199 29.5764 19.8621 30.1128L19.6741 30.7488C19.1821 32.4189 16.8179 32.4189 16.3259 30.7488L16.1379 30.1108C15.9798 29.5748 15.7038 29.0811 15.3301 28.6656C14.9564 28.2502 14.4946 27.9236 13.9783 27.7098C13.4621 27.496 12.9046 27.4003 12.3466 27.4299C11.7886 27.4594 11.2443 27.6134 10.7535 27.8806L10.1695 28.2006C8.64141 29.0307 6.96931 27.3606 7.80136 25.8305L8.11938 25.2485C8.3873 24.7575 8.54191 24.2129 8.57186 23.6544C8.60182 23.096 8.50635 22.5379 8.29248 22.0211C8.07861 21.5044 7.75175 21.0421 7.33589 20.6681C6.92003 20.2942 6.42573 20.0181 5.88924 19.8601L5.2512 19.6721C3.5811 19.1801 3.5811 16.8159 5.2512 16.3239L5.88924 16.1359C6.42489 15.9777 6.91839 15.7017 7.33362 15.3282C7.74885 14.9547 8.07531 14.493 8.2891 13.9771C8.50289 13.4611 8.59861 12.9038 8.56924 12.3461C8.53988 11.7883 8.38617 11.2442 8.11938 10.7535L7.79936 10.1695C6.96931 8.64141 8.63941 6.96931 10.1695 7.80136L10.7535 8.11938C11.2443 8.38655 11.7886 8.54056 12.3466 8.57012C12.9046 8.59968 13.4621 8.50405 13.9783 8.29023C14.4946 8.07641 14.9564 7.74982 15.3301 7.33437C15.7038 6.91893 15.9798 6.42517 16.1379 5.88924L16.3259 5.2512Z" fill="#5B7282" fill-opacity="0.25"/>
<path d="M21.3677 5.51734C20.3795 2.16088 15.6205 2.16088 14.6323 5.51734L14.456 6.11551C14.387 6.34981 14.2664 6.56569 14.1032 6.74734C13.9399 6.92899 13.738 7.0718 13.5124 7.1653C13.2867 7.25879 13.043 7.30061 12.7991 7.28768C12.5552 7.27475 12.3173 7.2074 12.1028 7.09057L11.5552 6.79055C8.48003 5.11794 5.11794 8.4819 6.79242 11.5552L7.09057 12.1028C7.2074 12.3173 7.27475 12.5552 7.28768 12.7991C7.30061 13.043 7.25879 13.2867 7.1653 13.5124C7.0718 13.738 6.92899 13.9399 6.74734 14.1032C6.56569 14.2664 6.34981 14.387 6.11551 14.456L5.51734 14.6323C2.16088 15.6205 2.16088 20.3795 5.51734 21.3677L6.11551 21.544C6.34981 21.613 6.56569 21.7336 6.74734 21.8968C6.92899 22.0601 7.0718 22.262 7.1653 22.4876C7.25879 22.7133 7.30061 22.957 7.28768 23.2009C7.27475 23.4448 7.2074 23.6827 7.09057 23.8972L6.79055 24.4448C5.11794 27.52 8.48003 30.8839 11.5552 29.2076L12.1028 28.9094C12.3173 28.7926 12.5552 28.7253 12.7991 28.7123C13.043 28.6994 13.2867 28.7412 13.5124 28.8347C13.738 28.9282 13.9399 29.071 14.1032 29.2527C14.2664 29.4343 14.387 29.6502 14.456 29.8845L14.6323 30.4827C15.6205 33.8391 20.3795 33.8391 21.3677 30.4827L21.544 29.8845C21.613 29.6502 21.7336 29.4343 21.8968 29.2527C22.0601 29.071 22.262 28.9282 22.4876 28.8347C22.7133 28.7412 22.957 28.6994 23.2009 28.7123C23.4448 28.7253 23.6827 28.7926 23.8972 28.9094L24.4448 29.2094C27.52 30.8839 30.8839 27.5181 29.2076 24.4448L28.9094 23.8972C28.7926 23.6827 28.7253 23.4448 28.7123 23.2009C28.6994 22.957 28.7412 22.7133 28.8347 22.4876C28.9282 22.262 29.071 22.0601 29.2527 21.8968C29.4343 21.7336 29.6502 21.613 29.8845 21.544L30.4827 21.3677C33.8391 20.3795 33.8391 15.6205 30.4827 14.6323L29.8845 14.456C29.6502 14.387 29.4343 14.2664 29.2527 14.1032C29.071 13.9399 28.9282 13.738 28.8347 13.5124C28.7412 13.2867 28.6994 13.043 28.7123 12.7991C28.7253 12.5552 28.7926 12.3173 28.9094 12.1028L29.2094 11.5552C30.8839 8.48003 27.5181 5.11794 24.4448 6.79242L23.8972 7.09057C23.6827 7.2074 23.4448 7.27475 23.2009 7.28768C22.957 7.30061 22.7133 7.25879 22.4876 7.1653C22.262 7.0718 22.0601 6.92899 21.8968 6.74734C21.7336 6.56569 21.613 6.34981 21.544 6.11551L21.3677 5.51734ZM16.4305 6.048C16.8918 4.48228 19.1082 4.48228 19.5695 6.048L19.7457 6.64617C19.8939 7.14886 20.1527 7.61202 20.5031 8.00169C20.8536 8.39136 21.2868 8.69766 21.771 8.89814C22.2552 9.09862 22.7782 9.1882 23.3015 9.1603C23.8248 9.13241 24.3353 8.98774 24.7954 8.73692L25.3411 8.4369C26.7737 7.65873 28.3413 9.22445 27.5612 10.6589L27.2631 11.2064C27.0126 11.6667 26.8683 12.1771 26.8407 12.7003C26.8131 13.2235 26.903 13.7462 27.1036 14.2302C27.3042 14.7142 27.6106 15.1472 28.0003 15.4974C28.39 15.8476 28.8531 16.1062 29.3557 16.2543L29.952 16.4305C31.5177 16.8918 31.5177 19.1082 29.952 19.5695L29.3538 19.7457C28.8511 19.8939 28.388 20.1527 27.9983 20.5031C27.6086 20.8536 27.3023 21.2868 27.1019 21.771C26.9014 22.2552 26.8118 22.7782 26.8397 23.3015C26.8676 23.8248 27.0123 24.3353 27.2631 24.7954L27.5631 25.3411C28.3413 26.7737 26.7755 28.3413 25.3411 27.5612L24.7954 27.2631C24.3351 27.0123 23.8246 26.8677 23.3011 26.8399C22.7777 26.8121 22.2547 26.9019 21.7705 27.1025C21.2862 27.3032 20.853 27.6097 20.5027 27.9996C20.1523 28.3895 19.8937 28.8529 19.7457 29.3557L19.5695 29.952C19.1082 31.5177 16.8918 31.5177 16.4305 29.952L16.2543 29.3538C16.106 28.8514 15.8473 28.3885 15.497 27.999C15.1467 27.6095 14.7137 27.3034 14.2297 27.1029C13.7457 26.9025 13.223 26.8128 12.6999 26.8405C12.1768 26.8682 11.6665 27.0126 11.2064 27.2631L10.6589 27.5631C9.22633 28.3413 7.65873 26.7755 8.43878 25.3411L8.73692 24.7954C8.9881 24.3352 9.13304 23.8246 9.16112 23.301C9.1892 22.7775 9.09971 22.2543 8.8992 21.7698C8.69869 21.2854 8.39226 20.8519 8.0024 20.5014C7.61253 20.1508 7.14912 19.892 6.64617 19.7439L6.048 19.5676C4.48228 19.1063 4.48228 16.8899 6.048 16.4287L6.64617 16.2524C7.14833 16.1041 7.61099 15.8454 8.00027 15.4952C8.38955 15.145 8.6956 14.7122 8.89603 14.2285C9.09646 13.7448 9.18619 13.2223 9.15867 12.6995C9.13114 12.1766 8.98704 11.6665 8.73692 11.2064L8.4369 10.6589C7.65873 9.22633 9.22445 7.65873 10.6589 8.43878L11.2064 8.73692C11.6665 8.98739 12.1768 9.13177 12.6999 9.15948C13.223 9.1872 13.7457 9.09754 14.2297 8.89709C14.7137 8.69663 15.1467 8.39045 15.497 8.00098C15.8473 7.6115 16.106 7.14859 16.2543 6.64617L16.4305 6.048Z" fill="#5B7282" fill-opacity="0.25"/>
</g>
<defs>
<clipPath id="clip0_67_64">
<rect width="36" height="36" fill="white"/>
</clipPath>
</defs>
</svg>
