<svg width="36" height="36" viewBox="0 0 36 36" fill="none" xmlns="http://www.w3.org/2000/svg">
<g clip-path="url(#clip0_50_58)">
<path d="M32 0C34.2091 0 36 1.79086 36 4V32C36 34.2091 34.2091 36 32 36H4C1.79086 36 0 34.2091 0 32V4C0 1.79086 1.79086 0 4 0H32ZM18.8978 34.8896C18.8927 34.8869 18.8866 34.8875 18.8809 34.8886C18.8757 34.8895 18.8706 34.8912 18.8658 34.8935L18.7761 34.9378C18.7697 34.9409 18.763 34.9432 18.756 34.9446L18.7521 34.9454C18.7419 34.9474 18.7313 34.947 18.7212 34.9441C18.7174 34.943 18.7137 34.9416 18.7102 34.9399L18.609 34.89C18.5973 34.8853 18.5865 34.887 18.5787 34.8923C18.5745 34.8952 18.572 34.8999 18.5701 34.9047C18.5681 34.9099 18.5669 34.9153 18.5667 34.9209L18.542 35.5419C18.5417 35.5503 18.5425 35.5586 18.5446 35.5667L18.5455 35.5706C18.5478 35.5798 18.552 35.5884 18.5577 35.5959C18.5619 35.6013 18.5668 35.606 18.5724 35.61L18.7129 35.7099C18.7176 35.7133 18.7229 35.7158 18.7285 35.7173L18.7303 35.7177C18.7382 35.7199 18.7467 35.7196 18.7545 35.717C18.7585 35.7157 18.7622 35.7138 18.7656 35.7113L18.9061 35.6114C18.913 35.6065 18.9191 35.6005 18.9242 35.5938L18.925 35.5927C18.9313 35.5843 18.9357 35.5747 18.9381 35.5646C18.9397 35.5579 18.9404 35.551 18.9401 35.5442L18.9155 34.9275C18.9152 34.9185 18.9148 34.9092 18.9102 34.9015C18.907 34.8962 18.9027 34.8921 18.8978 34.8896ZM19.2968 34.721C19.2907 34.7177 19.2835 34.718 19.2767 34.7191C19.2706 34.72 19.2647 34.7219 19.2592 34.7247L18.9972 34.8564C18.9924 34.8588 18.9881 34.8619 18.9843 34.8657L18.9826 34.8674C18.9776 34.8724 18.974 34.8786 18.9722 34.8854C18.9711 34.8894 18.9706 34.8936 18.9708 34.8978L18.9971 35.528C18.9974 35.5336 18.9986 35.5391 19.0008 35.5443L19.0012 35.5454C19.0037 35.5514 19.0075 35.5567 19.0124 35.561C19.0155 35.5636 19.0189 35.5659 19.0225 35.5676L19.3185 35.7045C19.3319 35.709 19.3445 35.7068 19.3538 35.7004C19.36 35.6961 19.3631 35.6888 19.3651 35.6815C19.367 35.6749 19.3678 35.668 19.3674 35.6611L19.3179 34.767C19.3173 34.756 19.3165 34.7447 19.3109 34.7352C19.3073 34.729 19.3025 34.7242 19.2968 34.721ZM18.2145 34.7205C18.2077 34.7174 18.2001 34.7166 18.1927 34.7182C18.1889 34.7191 18.1853 34.7206 18.182 34.7226C18.176 34.7263 18.1726 34.7328 18.1698 34.7392C18.1666 34.7467 18.1648 34.7546 18.1643 34.7628L18.114 35.6715C18.114 35.684 18.119 35.6936 18.1271 35.7003C18.1344 35.7063 18.1444 35.7068 18.1538 35.7056C18.1592 35.7049 18.1645 35.7033 18.1695 35.701L18.4582 35.5674C18.4617 35.5658 18.465 35.5638 18.468 35.5614L18.4697 35.5601C18.4755 35.5554 18.4798 35.5493 18.4824 35.5424C18.4838 35.5385 18.4846 35.5344 18.4847 35.5302L18.5098 34.8978C18.5099 34.8936 18.5095 34.8894 18.5085 34.8854C18.5065 34.8776 18.5025 34.8705 18.4969 34.8649L18.496 34.864C18.4924 34.8604 18.4881 34.8573 18.4835 34.855L18.2145 34.7205Z" fill="#007A61" fill-opacity="0.1"/>
<path d="M24.8148 11.7778L24.8148 6.07408H10.2963V11.7778L8.22222 11.7778V5.55556C8.22222 5.11482 8.37156 4.74512 8.67022 4.44645C8.96889 4.14778 9.33808 3.99897 9.77778 4.00001H25.3333C25.7741 4.00001 26.1438 4.14934 26.4424 4.44801C26.7411 4.74667 26.8899 5.11586 26.8889 5.55556V11.7778L24.8148 11.7778ZM26.8889 18.7778C27.3296 18.7778 27.6993 18.6284 27.998 18.3298C28.2967 18.0311 28.4455 17.6619 28.4444 17.2222C28.4444 16.7815 28.2951 16.4118 27.9964 16.1131C27.6978 15.8144 27.3286 15.6656 26.8889 15.6667C26.4481 15.6667 26.0784 15.816 25.7798 16.1147C25.4811 16.4133 25.3323 16.7825 25.3333 17.2222C25.3333 17.663 25.4827 18.0327 25.7813 18.3313C26.08 18.63 26.4492 18.7788 26.8889 18.7778ZM10.2963 29.4074H24.8148V21.6296H10.2963L10.2963 29.4074ZM11.3333 32C10.4778 32 9.74511 31.6951 9.13533 31.0853C8.52556 30.4756 8.22119 29.7434 8.22222 28.8889V25.7778H3.55556C3.11482 25.7778 2.74512 25.6284 2.44645 25.3298C2.14778 25.0311 1.99897 24.6619 2.00001 24.2222V16.4444C2.00001 15.1222 2.45371 14.0136 3.36112 13.1187C4.26852 12.2237 5.37037 11.7767 6.66667 11.7778H28.4444C29.7667 11.7778 30.8753 12.2253 31.7702 13.1202C32.6652 14.0152 33.1121 15.1233 33.1111 16.4444V24.2222C33.1111 24.663 32.9618 25.0327 32.6631 25.3313C32.3644 25.63 31.9953 25.7788 31.5555 25.7778H26.8889V28.8889C26.8889 29.7444 26.584 30.4771 25.9742 31.0869C25.3644 31.6967 24.6323 32.001 23.7778 32H11.3333ZM31.037 23.1852L31.037 15.6667C31.037 15.2259 30.8172 14.669 30.5185 14.3704C30.2198 14.0717 29.8231 13.8508 29.3834 13.8519H6.14815C5.70741 13.8519 5.11111 14.3704 4.59259 14.8889C4.29393 15.1876 4.07304 16.0047 4.07407 16.4444L4.07407 23.1852H8.22222L8.22222 19.5556H26.8889V23.1852H31.037Z" fill="#007A61"/>
</g>
<defs>
<clipPath id="clip0_50_58">
<rect width="36" height="36" fill="white"/>
</clipPath>
</defs>
</svg>
