<svg width="37" height="36" viewBox="0 0 37 36" fill="none" xmlns="http://www.w3.org/2000/svg">
<mask id="mask0_92_69" style="mask-type:luminance" maskUnits="userSpaceOnUse" x="4" y="1" width="18" height="18">
<path d="M14.1068 7.3129V4.27696C14.1068 3.97794 14.0479 3.68186 13.9335 3.4056C13.8191 3.12935 13.6514 2.87834 13.44 2.66691C13.2286 2.45547 12.9776 2.28775 12.7014 2.17332C12.4251 2.0589 12.1291 2 11.8301 2L8.79449 8.83088V17.1797H17.613C17.979 17.1839 18.3342 17.0556 18.6131 16.8185C18.892 16.5813 19.0759 16.2514 19.1308 15.8894L20.178 9.05857C20.2111 8.84101 20.1964 8.61888 20.135 8.40755C20.0737 8.19623 19.9671 8.00077 19.8228 7.83472C19.6784 7.66867 19.4996 7.53599 19.2989 7.44589C19.0982 7.35579 18.8803 7.31041 18.6602 7.3129H14.1068Z" stroke="white" stroke-width="1.7" stroke-linejoin="round"/>
<path d="M8.79452 8.74655H6.76825C5.87906 8.73095 5.11932 9.46759 5 10.3489V15.6618C5.05758 16.0875 5.26946 16.4773 5.59543 16.7571C5.92139 17.0369 6.33874 17.1873 6.76825 17.1797H8.79452V8.74655Z" fill="white" stroke="white" stroke-width="1.7" stroke-linejoin="round"/>
</mask>
<g mask="url(#mask0_92_69)">
<path d="M2.47034 -0.529968H22.7078V19.7097H2.47034V-0.529968Z" fill="#007A61"/>
</g>
<mask id="mask1_92_69" style="mask-type:luminance" maskUnits="userSpaceOnUse" x="17" y="18" width="18" height="18">
<path d="M24.0883 28.8671V31.903C24.0883 32.202 24.1472 32.4981 24.2616 32.7744C24.376 33.0506 24.5437 33.3017 24.7551 33.5131C24.9666 33.7245 25.2175 33.8922 25.4938 34.0067C25.77 34.1211 26.066 34.18 26.365 34.18L29.4006 27.3491V19.0003H20.5822C20.2161 18.9961 19.8609 19.1244 19.582 19.3615C19.3031 19.5986 19.1193 19.9286 19.0644 20.2905L18.0171 27.1214C17.9841 27.339 17.9987 27.5611 18.0601 27.7724C18.1214 27.9838 18.228 28.1792 18.3724 28.3453C18.5167 28.5113 18.6955 28.644 18.8962 28.7341C19.097 28.8242 19.3149 28.8696 19.5349 28.8671H24.0883Z" stroke="white" stroke-width="1.7" stroke-linejoin="round"/>
<path d="M29.4007 27.4335H31.427C32.3162 27.4491 33.0759 26.7124 33.1953 25.8312V20.5183C33.1377 20.0925 32.9258 19.7027 32.5998 19.4229C32.2739 19.1431 31.8565 18.9927 31.427 19.0003H29.4007V27.4335Z" fill="white" stroke="white" stroke-width="1.7" stroke-linejoin="round"/>
</mask>
<g mask="url(#mask1_92_69)">
<path d="M35.7249 36.71H15.4875V16.4703H35.7249V36.71Z" fill="#007A61"/>
</g>
<path d="M32 0C34.2091 0 36 1.79086 36 4V32C36 34.2091 34.2091 36 32 36H4C1.79086 36 0 34.2091 0 32V4C0 1.79086 1.79086 0 4 0H32ZM18.8978 34.8896C18.8927 34.8869 18.8866 34.8875 18.8809 34.8886C18.8757 34.8895 18.8706 34.8912 18.8658 34.8935L18.7761 34.9378C18.7697 34.9409 18.763 34.9432 18.756 34.9446L18.7521 34.9454C18.7419 34.9474 18.7313 34.947 18.7212 34.9441C18.7174 34.943 18.7137 34.9416 18.7102 34.9399L18.609 34.89C18.5973 34.8853 18.5865 34.887 18.5787 34.8923C18.5745 34.8952 18.572 34.8999 18.5701 34.9047C18.5681 34.9099 18.5669 34.9153 18.5667 34.9209L18.542 35.5419C18.5417 35.5503 18.5425 35.5586 18.5446 35.5667L18.5455 35.5706C18.5478 35.5798 18.552 35.5884 18.5577 35.5959C18.5619 35.6013 18.5668 35.606 18.5724 35.61L18.7129 35.7099C18.7176 35.7133 18.7229 35.7158 18.7285 35.7173L18.7303 35.7177C18.7382 35.7199 18.7467 35.7196 18.7545 35.717C18.7585 35.7157 18.7622 35.7138 18.7656 35.7113L18.9061 35.6114C18.913 35.6065 18.9191 35.6005 18.9242 35.5938L18.925 35.5927C18.9313 35.5843 18.9357 35.5747 18.9381 35.5646C18.9397 35.5579 18.9404 35.551 18.9401 35.5442L18.9155 34.9275C18.9152 34.9185 18.9148 34.9092 18.9102 34.9015C18.907 34.8962 18.9027 34.8921 18.8978 34.8896ZM19.2968 34.721C19.2907 34.7177 19.2835 34.718 19.2767 34.7191C19.2706 34.72 19.2647 34.7219 19.2592 34.7247L18.9972 34.8564C18.9924 34.8588 18.9881 34.8619 18.9843 34.8657L18.9826 34.8674C18.9776 34.8724 18.974 34.8786 18.9722 34.8854C18.9711 34.8894 18.9706 34.8936 18.9708 34.8978L18.9971 35.528C18.9974 35.5336 18.9986 35.5391 19.0008 35.5443L19.0012 35.5454C19.0037 35.5514 19.0075 35.5567 19.0124 35.561C19.0155 35.5636 19.0189 35.5659 19.0225 35.5676L19.3185 35.7045C19.3319 35.709 19.3445 35.7068 19.3538 35.7004C19.36 35.6961 19.3631 35.6888 19.3651 35.6815C19.367 35.6749 19.3678 35.668 19.3674 35.6611L19.3179 34.767C19.3173 34.756 19.3165 34.7447 19.3109 34.7352C19.3073 34.729 19.3025 34.7242 19.2968 34.721ZM18.2145 34.7205C18.2077 34.7174 18.2001 34.7166 18.1927 34.7182C18.1889 34.7191 18.1853 34.7206 18.182 34.7226C18.176 34.7263 18.1726 34.7328 18.1698 34.7392C18.1666 34.7467 18.1648 34.7546 18.1643 34.7628L18.114 35.6715C18.114 35.684 18.119 35.6936 18.1271 35.7003C18.1344 35.7063 18.1444 35.7068 18.1538 35.7056C18.1592 35.7049 18.1645 35.7033 18.1695 35.701L18.4582 35.5674C18.4617 35.5658 18.465 35.5638 18.468 35.5614L18.4697 35.5601C18.4755 35.5554 18.4798 35.5493 18.4824 35.5424C18.4838 35.5385 18.4846 35.5344 18.4847 35.5302L18.5098 34.8978C18.5099 34.8936 18.5095 34.8894 18.5085 34.8854C18.5065 34.8776 18.5025 34.8705 18.4969 34.8649L18.496 34.864C18.4924 34.8604 18.4881 34.8573 18.4835 34.855L18.2145 34.7205Z" fill="#007A61" fill-opacity="0.1"/>
</svg>
