<svg width="36" height="36" viewBox="0 0 36 36" fill="none" xmlns="http://www.w3.org/2000/svg">
<g clip-path="url(#clip0_48_50)">
<path d="M32 0C34.2091 0 36 1.79086 36 4V32C36 34.2091 34.2091 36 32 36H4C1.79086 36 0 34.2091 0 32V4C0 1.79086 1.79086 0 4 0H32ZM18.8978 34.8896C18.8927 34.8869 18.8866 34.8875 18.8809 34.8886C18.8757 34.8895 18.8706 34.8912 18.8658 34.8935L18.7761 34.9378C18.7697 34.9409 18.763 34.9432 18.756 34.9446L18.7521 34.9454C18.7419 34.9474 18.7313 34.947 18.7212 34.9441C18.7174 34.943 18.7137 34.9416 18.7102 34.9399L18.609 34.89C18.5973 34.8853 18.5865 34.887 18.5787 34.8923C18.5745 34.8952 18.572 34.8999 18.5701 34.9047C18.5681 34.9099 18.5669 34.9153 18.5667 34.9209L18.542 35.5419C18.5417 35.5503 18.5425 35.5586 18.5446 35.5667L18.5455 35.5706C18.5478 35.5798 18.552 35.5884 18.5577 35.5959C18.5619 35.6013 18.5668 35.606 18.5724 35.61L18.7129 35.7099C18.7176 35.7133 18.7229 35.7158 18.7285 35.7173L18.7303 35.7177C18.7382 35.7199 18.7467 35.7196 18.7545 35.717C18.7585 35.7157 18.7622 35.7138 18.7656 35.7113L18.9061 35.6114C18.913 35.6065 18.9191 35.6005 18.9242 35.5938L18.925 35.5927C18.9313 35.5843 18.9357 35.5747 18.9381 35.5646C18.9397 35.5579 18.9404 35.551 18.9401 35.5442L18.9155 34.9275C18.9152 34.9185 18.9148 34.9092 18.9102 34.9015C18.907 34.8962 18.9027 34.8921 18.8978 34.8896ZM19.2968 34.721C19.2907 34.7177 19.2835 34.718 19.2767 34.7191C19.2706 34.72 19.2647 34.7219 19.2592 34.7247L18.9972 34.8564C18.9924 34.8588 18.9881 34.8619 18.9843 34.8657L18.9826 34.8674C18.9776 34.8724 18.974 34.8786 18.9722 34.8854C18.9711 34.8894 18.9706 34.8936 18.9708 34.8978L18.9971 35.528C18.9974 35.5336 18.9986 35.5391 19.0008 35.5443L19.0012 35.5454C19.0037 35.5514 19.0075 35.5567 19.0124 35.561C19.0155 35.5636 19.0189 35.5659 19.0225 35.5676L19.3185 35.7045C19.3319 35.709 19.3445 35.7068 19.3538 35.7004C19.36 35.6961 19.3631 35.6888 19.3651 35.6815C19.367 35.6749 19.3678 35.668 19.3674 35.6611L19.3179 34.767C19.3173 34.756 19.3165 34.7447 19.3109 34.7352C19.3073 34.729 19.3025 34.7242 19.2968 34.721ZM18.2145 34.7205C18.2077 34.7174 18.2001 34.7166 18.1927 34.7182C18.1889 34.7191 18.1853 34.7206 18.182 34.7226C18.176 34.7263 18.1726 34.7328 18.1698 34.7392C18.1666 34.7467 18.1648 34.7546 18.1643 34.7628L18.114 35.6715C18.114 35.684 18.119 35.6936 18.1271 35.7003C18.1344 35.7063 18.1444 35.7068 18.1538 35.7056C18.1592 35.7049 18.1645 35.7033 18.1695 35.701L18.4582 35.5674C18.4617 35.5658 18.465 35.5638 18.468 35.5614L18.4697 35.5601C18.4755 35.5554 18.4798 35.5493 18.4824 35.5424C18.4838 35.5385 18.4846 35.5344 18.4847 35.5302L18.5098 34.8978C18.5099 34.8936 18.5095 34.8894 18.5085 34.8854C18.5065 34.8776 18.5025 34.8705 18.4969 34.8649L18.496 34.864C18.4924 34.8604 18.4881 34.8573 18.4835 34.855L18.2145 34.7205Z" fill="#007A61" fill-opacity="0.1"/>
<path d="M24.4386 4.28039C23.1908 3.80042 21.8092 3.80042 20.5614 4.28039L14.3316 6.67619C13.8221 6.87196 13.3839 7.21758 13.0747 7.66746C12.7656 8.11733 12.6001 8.65034 12.6 9.19619V11.1762C13.1976 11.1009 13.8024 11.1009 14.4 11.1762V9.19619C14.3998 9.01428 14.4548 8.83658 14.5576 8.68652C14.6604 8.53646 14.8063 8.42108 14.976 8.35559L21.2076 5.95979C22.0395 5.63981 22.9605 5.63981 23.7924 5.95979L30.0222 8.35559C30.1919 8.42108 30.3378 8.53646 30.4406 8.68652C30.5435 8.83658 30.5984 9.01428 30.5982 9.19619V17.2782C31.2426 17.6058 31.8456 18.0036 32.3982 18.4608V9.19619C32.3983 8.65055 32.233 8.1177 31.9242 7.66784C31.6154 7.21799 31.1776 6.87225 30.6684 6.67619L24.4386 4.28039ZM21.6684 15.6762C22.1934 15.8785 22.6421 16.2397 22.9518 16.7094C22.3569 16.9091 21.7825 17.1653 21.2364 17.4744C21.1707 17.4252 21.0987 17.3853 21.0222 17.3556L14.7924 14.9598C13.9605 14.6398 13.0395 14.6398 12.2076 14.9598L5.97601 17.3556C5.806 17.4212 5.65992 17.5368 5.55707 17.6873C5.45422 17.8377 5.39945 18.0158 5.40001 18.198V26.802C5.39982 26.9839 5.45475 27.1616 5.55758 27.3117C5.66041 27.4617 5.80629 27.5771 5.97601 27.6426L12.2076 30.0366C13.0395 30.3566 13.9605 30.3566 14.7924 30.0366L16.7274 29.2932C16.9218 29.8692 17.1684 30.4182 17.4618 30.9402L15.4386 31.7178C14.1908 32.1978 12.8092 32.1978 11.5614 31.7178L5.33161 29.322C4.82208 29.1262 4.38385 28.7806 4.07472 28.3307C3.76559 27.8808 3.60008 27.3478 3.60001 26.802V18.198C3.60008 17.6521 3.76559 17.1191 4.07472 16.6693C4.38385 16.2194 4.82208 15.8738 5.33161 15.678L11.5596 13.2822C12.808 12.8018 14.1902 12.8018 15.4386 13.2822L21.6684 15.678V15.6762ZM18.801 18.0108C18.9981 17.9351 19.2156 17.9312 19.4153 17.9996C19.615 18.0681 19.7843 18.2045 19.8936 18.3852C19.2418 18.9105 18.6588 19.5159 18.1584 20.187L14.4 21.6324V26.1144C14.4 26.3531 14.3052 26.582 14.1364 26.7508C13.9676 26.9196 13.7387 27.0144 13.5 27.0144C13.2613 27.0144 13.0324 26.9196 12.8636 26.7508C12.6948 26.582 12.6 26.3531 12.6 26.1144V21.6324L7.55101 19.692C7.44074 19.6494 7.33992 19.5856 7.25433 19.5041C7.16874 19.4226 7.10003 19.325 7.05215 19.2169C7.00426 19.1089 6.97812 18.9924 6.97523 18.8743C6.97235 18.7561 6.99276 18.6386 7.03531 18.5283C7.07785 18.418 7.14171 18.3172 7.22321 18.2316C7.30472 18.146 7.40229 18.0773 7.51035 18.0294C7.61841 17.9815 7.73484 17.9554 7.853 17.9525C7.97116 17.9496 8.08874 17.97 8.19901 18.0126L13.5 20.052L18.801 18.0126V18.0108ZM28.9638 9.52739C28.8781 9.30473 28.7074 9.12524 28.4894 9.02837C28.2713 8.9315 28.0237 8.92517 27.801 9.01079L22.8222 10.926C22.6142 11.006 22.384 11.006 22.176 10.926L17.1972 9.01079C16.976 8.932 16.7328 8.94276 16.5195 9.04077C16.3061 9.13878 16.1395 9.31628 16.0552 9.5354C15.9709 9.75452 15.9756 9.99791 16.0682 10.2137C16.1608 10.4294 16.3341 10.6004 16.551 10.6902L21.5298 12.6054C22.1537 12.8454 22.8445 12.8454 23.4684 12.6054L28.4472 10.6902C28.6699 10.6044 28.8494 10.4338 28.9462 10.2157C29.0431 9.99768 29.0494 9.7501 28.9638 9.52739ZM34.2 26.1C34.2 28.2482 33.3466 30.3085 31.8276 31.8276C30.3085 33.3466 28.2483 34.2 26.1 34.2C23.9518 34.2 21.8915 33.3466 20.3724 31.8276C18.8534 30.3085 18 28.2482 18 26.1C18 23.9517 18.8534 21.8915 20.3724 20.3724C21.8915 18.8534 23.9518 18 26.1 18C28.2483 18 30.3085 18.8534 31.8276 20.3724C33.3466 21.8915 34.2 23.9517 34.2 26.1ZM30.3372 22.7628C30.2536 22.679 30.1543 22.6125 30.0449 22.5671C29.9356 22.5217 29.8184 22.4984 29.7 22.4984C29.5816 22.4984 29.4644 22.5217 29.3551 22.5671C29.2457 22.6125 29.1464 22.679 29.0628 22.7628L24.3 27.5274L23.1372 26.3646C22.9685 26.1956 22.7395 26.1006 22.5006 26.1004C22.2618 26.1002 22.0327 26.1949 21.8637 26.3637C21.6947 26.5324 21.5997 26.7614 21.5995 27.0003C21.5993 27.2391 21.694 27.4682 21.8628 27.6372L23.6628 29.4372C23.7464 29.521 23.8457 29.5875 23.9551 29.6329C24.0644 29.6782 24.1816 29.7016 24.3 29.7016C24.4184 29.7016 24.5356 29.6782 24.6449 29.6329C24.7543 29.5875 24.8536 29.521 24.9372 29.4372L30.3372 24.0372C30.5059 23.8684 30.6007 23.6395 30.6007 23.4009C30.6007 23.1622 30.5059 22.9334 30.3372 22.7646V22.7628Z" fill="#007A61"/>
</g>
<defs>
<clipPath id="clip0_48_50">
<rect width="36" height="36" fill="white"/>
</clipPath>
</defs>
</svg>
