<svg width="36" height="36" viewBox="0 0 36 36" fill="none" xmlns="http://www.w3.org/2000/svg">
<g clip-path="url(#clip0_67_11)">
<path d="M32 0C34.2091 0 36 1.79086 36 4V32C36 34.2091 34.2091 36 32 36H4C1.79086 36 0 34.2091 0 32V4C0 1.79086 1.79086 0 4 0H32ZM18.8978 34.8896C18.8927 34.8869 18.8866 34.8875 18.8809 34.8886C18.8757 34.8895 18.8706 34.8912 18.8658 34.8935L18.7761 34.9378C18.7697 34.9409 18.763 34.9432 18.756 34.9446L18.7521 34.9454C18.7419 34.9474 18.7313 34.947 18.7212 34.9441C18.7174 34.943 18.7137 34.9416 18.7102 34.9399L18.609 34.89C18.5973 34.8853 18.5865 34.887 18.5787 34.8923C18.5745 34.8952 18.572 34.8999 18.5701 34.9047C18.5681 34.9099 18.5669 34.9153 18.5667 34.9209L18.542 35.5419C18.5417 35.5503 18.5425 35.5586 18.5446 35.5667L18.5455 35.5706C18.5478 35.5798 18.552 35.5884 18.5577 35.5959C18.5619 35.6013 18.5668 35.606 18.5724 35.61L18.7129 35.7099C18.7176 35.7133 18.7229 35.7158 18.7285 35.7173L18.7303 35.7177C18.7382 35.7199 18.7467 35.7196 18.7545 35.717C18.7585 35.7157 18.7622 35.7138 18.7656 35.7113L18.9061 35.6114C18.913 35.6065 18.9191 35.6005 18.9242 35.5938L18.925 35.5927C18.9313 35.5843 18.9357 35.5747 18.9381 35.5646C18.9397 35.5579 18.9404 35.551 18.9401 35.5442L18.9155 34.9275C18.9152 34.9185 18.9148 34.9092 18.9102 34.9015C18.907 34.8962 18.9027 34.8921 18.8978 34.8896ZM19.2968 34.721C19.2907 34.7177 19.2835 34.718 19.2767 34.7191C19.2706 34.72 19.2647 34.7219 19.2592 34.7247L18.9972 34.8564C18.9924 34.8588 18.9881 34.8619 18.9843 34.8657L18.9826 34.8674C18.9776 34.8724 18.974 34.8786 18.9722 34.8854C18.9711 34.8894 18.9706 34.8936 18.9708 34.8978L18.9971 35.528C18.9974 35.5336 18.9986 35.5391 19.0008 35.5443L19.0012 35.5454C19.0037 35.5514 19.0075 35.5567 19.0124 35.561C19.0155 35.5636 19.0189 35.5659 19.0225 35.5676L19.3185 35.7045C19.3319 35.709 19.3445 35.7068 19.3538 35.7004C19.36 35.6961 19.3631 35.6888 19.3651 35.6815C19.367 35.6749 19.3678 35.668 19.3674 35.6611L19.3179 34.767C19.3173 34.756 19.3165 34.7447 19.3109 34.7352C19.3073 34.729 19.3025 34.7242 19.2968 34.721ZM18.2145 34.7205C18.2077 34.7174 18.2001 34.7166 18.1927 34.7182C18.1889 34.7191 18.1853 34.7206 18.182 34.7226C18.176 34.7263 18.1726 34.7328 18.1698 34.7392C18.1666 34.7467 18.1648 34.7546 18.1643 34.7628L18.114 35.6715C18.114 35.684 18.119 35.6936 18.1271 35.7003C18.1344 35.7063 18.1444 35.7068 18.1538 35.7056C18.1592 35.7049 18.1645 35.7033 18.1695 35.701L18.4582 35.5674C18.4617 35.5658 18.465 35.5638 18.468 35.5614L18.4697 35.5601C18.4755 35.5554 18.4798 35.5493 18.4824 35.5424C18.4838 35.5385 18.4846 35.5344 18.4847 35.5302L18.5098 34.8978C18.5099 34.8936 18.5095 34.8894 18.5085 34.8854C18.5065 34.8776 18.5025 34.8705 18.4969 34.8649L18.496 34.864C18.4924 34.8604 18.4881 34.8573 18.4835 34.855L18.2145 34.7205Z" fill="#5B7282" fill-opacity="0.04"/>
<path d="M34.279 17.6744C34.2304 17.5646 33.0525 14.9516 30.434 12.333C26.9449 8.84397 22.538 7 17.6875 7C12.837 7 8.4301 8.84397 4.94102 12.333C2.32247 14.9516 1.13905 17.5688 1.09594 17.6744C1.03268 17.8167 1 17.9707 1 18.1264C1 18.2821 1.03268 18.4361 1.09594 18.5783C1.14461 18.6882 2.32247 21.2998 4.94102 23.9183C8.4301 27.406 12.837 29.25 17.6875 29.25C22.538 29.25 26.9449 27.406 30.434 23.9183C33.0525 21.2998 34.2304 18.6882 34.279 18.5783C34.3423 18.4361 34.375 18.2821 34.375 18.1264C34.375 17.9707 34.3423 17.8167 34.279 17.6744ZM17.6875 27.025C13.4071 27.025 9.66775 25.4689 6.57222 22.4012C5.30209 21.1381 4.22149 19.6977 3.36405 18.125C4.22126 16.5521 5.30188 15.1118 6.57222 13.8488C9.66775 10.7811 13.4071 9.225 17.6875 9.225C21.9678 9.225 25.7072 10.7811 28.8028 13.8488C30.0754 15.1115 31.1583 16.5518 32.0179 18.125C31.0152 19.9968 26.6473 27.025 17.6875 27.025ZM17.6875 11.45C16.3673 11.45 15.0768 11.8415 13.9791 12.5749C12.8814 13.3084 12.0258 14.3509 11.5206 15.5706C11.0154 16.7903 10.8832 18.1324 11.1407 19.4272C11.3983 20.722 12.034 21.9114 12.9675 22.8449C13.9011 23.7785 15.0904 24.4142 16.3853 24.6717C17.6801 24.9293 19.0222 24.7971 20.2419 24.2919C21.4616 23.7867 22.5041 22.9311 23.2375 21.8334C23.971 20.7357 24.3625 19.4452 24.3625 18.125C24.3606 16.3552 23.6568 14.6585 22.4054 13.4071C21.154 12.1557 19.4572 11.4518 17.6875 11.45ZM17.6875 22.575C16.8074 22.575 15.947 22.314 15.2152 21.825C14.4834 21.3361 13.913 20.6411 13.5762 19.8279C13.2394 19.0148 13.1513 18.1201 13.323 17.2568C13.4947 16.3936 13.9185 15.6007 14.5409 14.9784C15.1632 14.356 15.9561 13.9322 16.8193 13.7605C17.6826 13.5888 18.5773 13.6769 19.3904 14.0137C20.2036 14.3505 20.8986 14.9209 21.3875 15.6527C21.8765 16.3845 22.1375 17.2449 22.1375 18.125C22.1375 19.3052 21.6686 20.4371 20.8341 21.2716C19.9996 22.1062 18.8677 22.575 17.6875 22.575Z" fill="#5B7282" fill-opacity="0.25"/>
</g>
<defs>
<clipPath id="clip0_67_11">
<rect width="36" height="36" fill="white"/>
</clipPath>
</defs>
</svg>
